<svg width="251" height="255" viewBox="0 0 251 255" fill="none" xmlns="http://www.w3.org/2000/svg">
<g id="Group 3">
<g id="Group 2">
<g id="Group 9">
<path id="Blob" fill-rule="evenodd" clip-rule="evenodd" d="M118.462 200.41C83.0614 192.662 35.8943 177.287 43.6451 124.532C51.396 71.777 84.6215 51.436 125.727 51.436C166.832 51.436 213.533 82.4477 204.365 146.691C195.197 210.935 153.862 208.158 118.462 200.41ZM234.82 136.817C236.282 122.138 234.729 107.614 230.557 93.998L242.46 87.6214C244.467 86.5471 245.221 84.0503 244.149 82.0445L227.897 51.7031C226.821 49.6973 224.324 48.9424 222.317 50.0167L210.414 56.3932C201.389 45.378 190.159 36.0374 177.132 29.1202L181.037 16.1996C181.697 14.0216 180.465 11.7224 178.286 11.0639L145.339 1.10138C143.16 0.44292 140.862 1.67458 140.203 3.85264L136.298 16.7732C121.616 15.3118 110.92 20.6915 97.3043 24.8612L90.9275 12.9572C89.8535 10.9513 87.3564 10.1964 85.3509 11.2707L55.0095 27.5235C53.0037 28.5978 52.2488 31.0946 53.3231 33.1001L59.6996 45.0046C48.6845 54.0285 35.5172 61.4322 28.6 74.4617L15.6791 70.5549C13.5014 69.8964 11.2018 71.1281 10.5434 73.3058L0.581196 106.253C-0.0772646 108.431 1.15439 110.73 3.33212 111.389L16.253 115.296C14.7916 129.975 16.3447 144.5 20.5144 158.115L8.61029 164.492C6.60446 165.566 5.84956 168.063 6.92387 170.069L23.1766 200.41C24.2509 202.415 26.7477 203.171 28.7532 202.096L40.6576 195.72C49.6815 206.735 60.9119 216.076 73.9414 222.993L70.0346 235.913C69.3762 238.091 70.6078 240.391 72.7855 241.049L105.733 251.01C107.909 251.67 110.21 250.438 110.87 248.259L114.774 235.34C129.453 236.801 143.979 235.248 157.595 231.078L163.97 242.983C165.046 244.988 167.543 245.742 169.549 244.669L199.891 228.416C201.894 227.342 202.652 224.845 201.576 222.839L195.197 210.935C206.215 201.911 215.553 190.681 222.473 177.651L235.392 181.558C237.571 182.216 239.872 180.985 240.528 178.807L250.49 145.86C251.15 143.682 249.918 141.383 247.739 140.724L234.82 136.817Z" fill="#5B96F7"/>
<path id="Highlights" fill-rule="evenodd" clip-rule="evenodd" d="M171.073 62.744L169.926 62.7053L169.893 63.7247C169.839 65.5588 169.864 67.5209 169.891 69.6603C169.91 71.1511 169.93 72.7281 169.926 74.4077L169.735 77.7245C169.74 80.8146 169.762 85.1155 169.8 90.6275L169.925 106.318C169.082 106.598 168.448 107.326 168.321 108.212C167.625 108.318 167.091 108.909 167.091 109.619C167.091 110.122 167.359 110.565 167.762 110.819L167.271 112.005C167.053 112.532 166.694 112.983 166.231 113.308C164.203 114.734 163.01 117.045 163.038 119.488C163.038 119.553 163.04 119.618 163.043 119.682C163.051 119.916 163.252 120.097 163.492 120.091C163.731 120.082 163.917 119.885 163.909 119.651C163.906 119.593 163.905 119.536 163.904 119.478C163.879 117.312 165.321 115.263 167.119 113.998C167.715 113.578 168.178 113 168.457 112.324L168.604 111.044H169.22C169.22 111.044 169.434 112.196 169.434 113.096C169.434 113.997 169.22 115.781 169.22 115.781H168.51C167.697 115.781 167.035 116.429 167.035 117.225C167.035 118.022 167.697 118.67 168.51 118.67H168.612C169.425 118.67 169.704 118.254 169.704 117.225C169.704 116.687 169.763 116.302 170.642 116.302C171.521 116.302 171.295 117.225 171.295 117.225C171.295 118.022 171.956 118.67 172.77 118.67H172.871C173.685 118.67 174.346 118.022 174.346 117.225C174.346 116.429 172.974 115.755 172.161 115.755C172.161 115.755 171.945 114.134 171.945 113.308C171.945 112.612 172.161 111.189 172.161 111.189H171.295C171.295 111.189 171.475 112.517 171.475 113.328C171.475 114.139 171.295 115.755 171.295 115.755C171.295 115.755 170.817 115.841 170.589 115.846C170.361 115.851 170.087 115.781 170.087 115.781C170.087 115.781 169.897 114.123 169.897 113.328C169.897 112.533 170.087 111.044 170.087 111.044H171.295H172.161H172.777L173.307 112.323C173.572 112.966 174.369 113.531 174.975 113.961L175.052 114.015C176.81 115.264 177.477 117.277 177.477 119.401C177.477 121.195 176.759 122.877 175.454 124.136C174.15 125.395 172.423 126.457 170.589 126.431C169.135 126.41 167.649 125.609 166.487 124.741C165.361 123.9 163.904 121.6 163.662 121.07C163.419 120.539 163.305 121.377 163.376 121.6C163.842 123.081 164.797 124.417 166.065 125.364C167.376 126.344 168.936 126.874 170.576 126.897C172.644 126.926 174.592 126.161 176.062 124.741C177.534 123.321 178.344 121.424 178.344 119.401C178.344 117.006 177.16 114.736 175.178 113.328C174.695 112.985 174.326 112.527 174.11 112.005L173.619 110.819C174.022 110.565 174.29 110.122 174.29 109.619C174.29 108.909 173.756 108.318 173.06 108.212C172.917 107.213 172.13 106.415 171.124 106.234L171.068 106.234L170.404 91.6427C170.364 86.0887 170.883 74.9877 170.883 74.9877C170.893 70.7187 170.945 66.976 171.041 63.7597L171.073 62.744ZM172.77 117.821C172.434 117.821 172.161 117.554 172.161 117.225V116.302C172.161 116.302 173.48 116.566 173.48 117.225C173.48 117.831 173.25 117.827 172.953 117.822L172.952 117.822C172.926 117.822 172.899 117.821 172.871 117.821H172.77ZM167.57 117.225C167.626 118.055 169.347 118.417 169.22 117.225V116.302C169.22 116.302 167.514 116.396 167.57 117.225ZM169.205 108.195C169.364 107.536 169.97 107.044 170.691 107.044C171.412 107.044 172.017 107.536 172.177 108.195H169.205ZM172.836 109.044H172.651H168.73H168.545C168.221 109.044 167.958 109.302 167.958 109.619C167.958 109.937 168.221 110.195 168.545 110.195H172.836C173.16 110.195 173.424 109.937 173.424 109.619C173.424 109.302 173.16 109.044 172.836 109.044ZM180.261 112.739H181.019C181.232 112.739 181.405 112.568 181.405 112.357C181.405 112.145 181.232 111.974 181.019 111.974H180.261C180.048 111.974 179.875 112.145 179.875 112.357C179.875 112.568 180.048 112.739 180.261 112.739ZM179.659 115.448L180.388 115.755C180.594 115.841 180.693 116.086 180.611 116.302C180.529 116.517 180.295 116.622 180.09 116.536L179.361 116.229C179.156 116.142 179.056 115.898 179.138 115.682C179.201 115.518 179.351 115.418 179.51 115.418C179.56 115.418 179.611 115.428 179.659 115.448ZM179.009 109.208L179.692 108.66C179.884 108.506 179.932 108.2 179.799 107.976C179.717 107.839 179.585 107.765 179.45 107.765C179.367 107.765 179.283 107.793 179.209 107.852L178.527 108.4C178.334 108.554 178.286 108.86 178.419 109.083C178.552 109.307 178.817 109.362 179.009 109.208ZM160.737 112.739H159.98C159.766 112.739 159.593 112.568 159.593 112.357C159.593 112.145 159.766 111.974 159.98 111.974H160.737C160.951 111.974 161.124 112.145 161.124 112.357C161.124 112.568 160.951 112.739 160.737 112.739ZM161.339 115.448L160.61 115.755C160.405 115.841 160.305 116.086 160.388 116.302C160.47 116.517 160.703 116.622 160.909 116.536L161.638 116.229C161.843 116.142 161.943 115.898 161.86 115.682C161.798 115.518 161.647 115.418 161.488 115.418C161.438 115.418 161.388 115.428 161.339 115.448ZM161.989 109.208L161.307 108.66C161.114 108.506 161.066 108.2 161.199 107.976C161.282 107.839 161.414 107.765 161.548 107.765C161.631 107.765 161.715 107.793 161.789 107.852L162.472 108.4C162.664 108.554 162.712 108.86 162.579 109.083C162.446 109.306 162.182 109.362 161.989 109.208Z" fill="#FFB61D"/>
<path id="Whites" d="M114.542 169.596C118.763 170.707 120.929 173.351 122.758 175.814C124.591 178.276 120.561 177.104 118.338 176.215C116.115 175.327 110.761 172.04 110.761 172.04L93.0132 166.672V158.463L98.3208 158.153C98.3208 158.153 110.317 168.485 114.542 169.596Z" fill="white"/>
<path id="Whites_2" d="M96.1515 109.475C99.9475 123.842 101.907 137.588 102.217 150.775C102.217 150.775 105.772 151.22 105.328 154.33C104.884 157.441 95.5507 165.884 95.5507 165.884L92.3171 155.166L91.1079 115.67L96.1515 109.475Z" fill="white"/>
<path id="Highlights_2" fill-rule="evenodd" clip-rule="evenodd" d="M97.4464 116.828L95.2666 115.382C95.1274 115.29 94.9437 115.361 94.8937 115.528L94.1335 118.052C94.0702 118.262 94.2593 118.459 94.4554 118.388L97.3953 117.309C97.5957 117.235 97.6263 116.947 97.4464 116.828ZM97.1824 117.245L94.5038 118.02L95.3011 115.724L97.1824 117.245Z" fill="#FFB61D"/>
<path id="Highlights_3" fill-rule="evenodd" clip-rule="evenodd" d="M96.4898 135.005L94.3101 133.559C94.1709 133.466 93.9872 133.538 93.9371 133.704L93.177 136.229C93.1137 136.439 93.3028 136.636 93.4988 136.564L96.4387 135.486C96.6391 135.412 96.6698 135.124 96.4898 135.005ZM96.2259 135.422L93.5472 136.197L94.3446 133.901L96.2259 135.422Z" fill="#FFB61D"/>
<path id="Highlights_4" fill-rule="evenodd" clip-rule="evenodd" d="M95.3437 145.216L95.506 142.606C95.5163 142.439 95.3624 142.316 95.1933 142.356L92.627 142.96C92.4133 143.01 92.3372 143.272 92.4975 143.406L94.9016 145.413C95.0655 145.549 95.3303 145.432 95.3437 145.216ZM94.8503 145.196L92.84 143.264L95.2271 142.807L94.8503 145.196Z" fill="#FFB61D"/>
<path id="Highlights_5" fill-rule="evenodd" clip-rule="evenodd" d="M99.4752 143.29L96.8646 143.128C96.6978 143.118 96.5747 143.272 96.6145 143.441L97.2184 146.007C97.2687 146.221 97.531 146.297 97.6648 146.137L99.6715 143.733C99.8083 143.569 99.6907 143.304 99.4752 143.29ZM99.4553 143.784L97.5229 145.794L97.0655 143.407L99.4553 143.784Z" fill="#FFB61D"/>
<path id="Highlights_6" fill-rule="evenodd" clip-rule="evenodd" d="M97.4596 156.599L95.1176 157.763C94.968 157.838 94.9383 158.033 95.0573 158.159L96.8635 160.08C97.0139 160.24 97.2791 160.174 97.3148 159.969L97.8506 156.883C97.8871 156.673 97.6529 156.502 97.4596 156.599ZM97.689 157.036L97.0207 159.743L95.431 157.904L97.689 157.036Z" fill="#FFB61D"/>
<path id="Highlights_7" fill-rule="evenodd" clip-rule="evenodd" d="M98.608 149.328L96.266 150.493C96.1164 150.567 96.0867 150.762 96.2057 150.889L98.0119 152.809C98.1623 152.969 98.4275 152.904 98.4633 152.698L98.9991 149.613C99.0356 149.402 98.8013 149.232 98.608 149.328ZM98.8374 149.765L98.1691 152.472L96.5794 150.634L98.8374 149.765Z" fill="#FFB61D"/>
<path id="Whites_3" d="M83.425 118.114L80.8498 125.889C74.9633 143.694 72.0647 152.731 71.9776 153.579C71.9235 154.105 72.2427 154.498 72.7349 154.632C73.0307 154.713 73.3924 154.708 73.8417 154.641C74.5407 154.538 75.4753 154.276 76.6037 153.886C77.476 153.585 78.4186 153.223 79.3734 152.832L79.7751 152.666C79.9056 152.612 80.0325 152.559 80.1554 152.506L80.7934 152.232L80.9756 152.151L81.0815 151.983C81.2696 151.683 81.5376 151.153 81.8019 150.427C82.0342 149.789 82.2193 149.106 82.3411 148.384L82.3837 148.112C82.4216 147.847 82.7855 147.233 83.5359 146.186L84.0589 145.47C84.4879 144.892 85.3132 143.787 85.3962 143.675L85.8816 143.018C86.3454 142.386 86.7503 141.821 87.1458 141.251C89.1301 138.395 90.5322 135.894 91.3594 133.488C92.0611 131.447 92.3071 129.555 92.0293 127.817C91.6038 125.163 91.7668 122.627 92.3879 120.247C92.9039 118.269 91.2717 116.445 88.9186 115.774C86.4873 115.081 84.1708 115.866 83.425 118.114Z" fill="white"/>
<path id="Whites_4" d="M87.7349 106.618C89.1691 108.14 90.3726 109.301 91.3452 110.1C92.9835 111.447 95.332 112.89 98.3908 114.43C89.0346 116.597 83.3215 117.025 81.2516 115.715C81.2516 115.715 82.1138 111.658 83.3525 109.92C84.2749 108.625 87.7349 106.618 87.7349 106.618Z" fill="white"/>
<path id="Whites_5" d="M102.618 87.0591C100.674 94.4423 95.3624 102.15 89.7066 100.662C84.0508 99.1728 80.9206 89.0815 82.8645 81.6983C84.8085 74.3152 90.9694 69.5368 96.6252 71.0254C102.281 72.514 104.562 79.6763 102.618 87.0591Z" fill="white"/>
<path id="Whites_6" d="M103.912 89.4137C101.712 97.8631 95.7011 106.684 89.3005 104.981C82.8998 103.277 79.3574 91.7282 81.5573 83.2788C83.7573 74.8295 90.7296 69.3611 97.1302 71.0646C103.531 72.7681 106.112 80.9648 103.912 89.4137Z" fill="white"/>
<path id="Shadow" fill-rule="evenodd" clip-rule="evenodd" d="M93.6973 72.0365C98.0589 72.2842 101.242 73.7171 103.026 76.242L103.228 76.5339C104.11 77.8075 104.852 78.6091 105.177 81.0197L105.208 81.2759C105.393 82.8618 105.448 84.5347 105.352 85.0899C105.301 85.3244 105.2 85.4063 105.073 85.3815C104.785 85.3251 104.039 83.9985 102.834 81.4017L101.823 82.5851C101.273 83.2207 100.106 83.8198 99.4144 84.2701C98.7229 84.7204 93.6973 72.0365 93.6973 72.0365Z" fill="#E7EAEE"/>
<path id="Whites_7" fill-rule="evenodd" clip-rule="evenodd" d="M98.1006 96.0208C100.529 97.0337 102.374 98.3492 102.863 97.8021C103.353 97.255 101.684 95.5888 100.388 93.3258C99.0311 91.0755 97.7421 88.2409 97.5012 87.0877L96.8843 84.1727C95.0796 86.4501 93.39 94.091 98.1006 96.0208Z" fill="white"/>
<path id="Whites_8" d="M126.337 235.163L126.206 243.268H121.595L120.214 233.968L126.337 235.163Z" fill="white"/>
<path id="Whites_9" d="M75.845 192.061C75.845 192.061 105.759 191.401 115.163 190.044C125.602 188.539 131.311 184.98 133.581 185.401C134.645 185.598 140.924 186.711 154.026 188.104C159.567 188.694 173.951 188.784 173.951 188.784L179.534 176.902C179.534 176.902 140.248 169.014 127.827 172.428C123.92 173.502 115.46 175.051 105.401 174.485C96.7024 173.996 73.045 169.401 73.045 169.401C73.045 169.401 63.4933 172.83 65.2222 181.262C66.9512 189.694 75.845 192.061 75.845 192.061Z" fill="white"/>
<path id="Shadow_2" fill-rule="evenodd" clip-rule="evenodd" d="M176.334 181.986L178.173 176.661C178.173 176.661 138.953 169.345 126.532 172.759C122.625 173.833 119.094 175.603 109.035 175.037C105.184 174.821 98.6003 173.919 89.2831 172.334C84.5699 171.531 83.8128 171.828 87.5171 174.251C96.1072 179.868 115.215 178.544 132.552 176.013C164.773 171.308 176.334 181.986 176.334 181.986Z" fill="#E7EAEE"/>
<path id="Whites_10" d="M121.133 237.003C119.181 239.16 116.594 242.711 117.926 246.266L141.035 253.376C141.035 253.376 141.923 250.708 140.591 248.489C139.256 246.266 126.647 237.494 126.647 237.494L121.133 237.003Z" fill="white"/>
<path id="Shadow_3" fill-rule="evenodd" clip-rule="evenodd" d="M131.799 241.819C131.952 241.778 132.11 241.868 132.151 242.021C132.193 242.174 132.102 242.332 131.949 242.373C131.197 242.577 130.701 243.053 130.526 243.655C130.301 244.433 130.276 245.23 130.532 246.504C130.563 246.659 130.463 246.811 130.307 246.842C130.152 246.873 130 246.772 129.969 246.617C129.696 245.254 129.723 244.364 129.975 243.495C130.206 242.698 130.856 242.075 131.799 241.819Z" fill="#E7EAEE"/>
<path id="Shadow_4" fill-rule="evenodd" clip-rule="evenodd" d="M119.074 246.648L141.809 253.338C141.809 253.338 144.696 252.731 141.711 252.307C138.643 251.871 120.684 243.647 118.708 245.145C118.427 245.358 118.9 246.184 119.074 246.648Z" fill="#E7EAEE"/>
<path id="Whites_11" d="M62.4252 190.366C62.4252 190.366 72.6839 193.603 80.9449 194.817C89.2058 196.031 105.684 196.722 105.684 196.722C105.684 196.722 110.828 199.518 111.16 200.813C111.289 201.318 112.069 207.984 114.224 216.499C115.238 220.504 120.656 238.618 120.656 238.618L127.827 235.444C127.827 235.444 127.539 202.151 122.962 191.108C118.384 180.066 71.3304 169.341 71.3304 169.341C71.3304 169.341 61.344 167.535 58.6253 175.702C55.9067 183.868 62.4252 190.366 62.4252 190.366Z" fill="white"/>
<path id="Shadow_5" fill-rule="evenodd" clip-rule="evenodd" d="M121.804 237.47L128.975 234.296C128.783 212.1 127.161 197.322 124.11 189.961C124.11 189.961 127.228 229.15 121.804 237.47Z" fill="#E7EAEE"/>
<path id="Whites_12" d="M184.337 182.423C186.121 184.719 189.169 187.883 192.902 187.189L203.916 165.665C203.916 165.665 201.082 164.412 198.665 165.338C196.244 166.267 185.597 177.378 185.597 177.378L184.337 182.423Z" fill="white"/>
<path id="Shadow_6" fill-rule="evenodd" clip-rule="evenodd" d="M136.494 245.641C136.608 245.531 136.79 245.535 136.9 245.65C137.009 245.764 137.005 245.946 136.891 246.055C136.224 246.694 136.1 247.765 136.483 248.411C136.564 248.548 136.519 248.724 136.382 248.804C136.246 248.885 136.07 248.84 135.989 248.704C135.473 247.832 135.631 246.468 136.494 245.641Z" fill="#E7EAEE"/>
<path id="Shadow_7" fill-rule="evenodd" clip-rule="evenodd" d="M134.149 243.748C134.265 243.64 134.447 243.646 134.555 243.761C134.664 243.877 134.658 244.058 134.542 244.167L134.387 244.316C133.18 245.504 132.834 246.542 133.897 247.656C134.006 247.771 134.002 247.952 133.887 248.062C133.773 248.171 133.591 248.167 133.482 248.052C132.696 247.229 132.535 246.34 132.883 245.45C133.123 244.836 133.541 244.321 134.149 243.748Z" fill="#E7EAEE"/>
<path id="Shadow_8" fill-rule="evenodd" clip-rule="evenodd" d="M123.103 243.373C123.762 244.632 127.26 244.115 126.651 240.632C126.363 238.984 121.279 239.885 123.103 243.373Z" fill="#E7EAEE"/>
<path id="Shadow_9" fill-rule="evenodd" clip-rule="evenodd" d="M190.718 187.589C195.34 182.307 197.996 170.428 201.803 166.341C203.146 164.898 204.889 164.574 203.013 167.99C199.581 174.24 192.985 187.589 192.985 187.589C192.636 187.764 192.204 187.589 191.814 187.589H190.718Z" fill="#E7EAEE"/>
<path id="Whites_13" d="M114.542 169.596C118.763 170.707 120.929 173.351 122.758 175.814C124.591 178.276 120.561 177.104 118.338 176.215C116.115 175.327 111.862 171.954 111.862 171.954L114.542 169.596Z" fill="white"/>
<path id="Whites_14" d="M76.0955 159.598C76.0955 159.598 99.8552 169.805 103.204 169.818C106.548 169.832 114.756 173.818 115.2 176.928C115.74 180.713 101.424 175.151 101.424 175.151C101.424 175.151 69.4294 175.151 64.0989 169.818C58.7649 164.486 62.3195 153.377 62.3195 153.377L76.0955 159.598Z" fill="white"/>
<path id="Whites_15" d="M70.3172 112.051C70.3172 112.051 76.0954 115.605 76.9832 127.159C77.871 138.713 74.316 152.488 74.316 152.488C74.316 152.488 76.5393 154.266 76.9832 156.043C77.4271 157.821 76.0763 160.167 76.0763 160.167C76.0763 160.167 62.7641 166.708 61.8752 167.152C60.9866 167.597 57.4316 166.263 57.4316 162.708C57.4316 159.154 58.7649 156.043 58.7649 156.043C59.4028 132.591 55.6542 109.829 70.3172 112.051Z" fill="white"/>
<path id="Whites_16" fill-rule="evenodd" clip-rule="evenodd" d="M93.8547 87.4659C95.2215 85.6357 98.1104 85.0398 98.8813 87.9292C98.8813 87.9292 99.4736 89.6726 98.2798 90.7497C94.6226 94.0497 92.4879 89.2961 93.8547 87.4659Z" fill="white"/>
<path id="Whites_17" fill-rule="evenodd" clip-rule="evenodd" d="M101.487 89.4513C102.786 87.7125 105.53 87.1464 106.263 89.8914C106.263 89.8914 106.825 91.5476 105.691 92.5709C102.217 95.706 100.189 91.19 101.487 89.4513Z" fill="white"/>
<path id="Whites_18" d="M90.8547 111.707C90.8547 111.707 90.8547 133.068 91.1685 145.004C91.4823 156.941 88.7462 168.702 83.519 177.899C78.2917 187.097 79.0032 200.254 75.1501 201.232C44.6727 208.968 52.8782 114.301 64.1549 108.252C75.4316 102.203 79.1566 100.921 79.1566 100.921" fill="white"/>
<path id="Highlights_8" fill-rule="evenodd" clip-rule="evenodd" d="M75.2244 117.701L72.5979 121.622C72.3801 121.947 72.5446 122.39 72.9219 122.495L76.4267 123.464C76.834 123.576 77.2193 123.225 77.1446 122.809L76.2663 117.919C76.1751 117.41 75.5117 117.272 75.2244 117.701ZM75.7952 118.304L76.5796 122.911L73.532 121.622L75.7952 118.304Z" fill="#FFB61D"/>
<path id="Highlights_9" fill-rule="evenodd" clip-rule="evenodd" d="M66.7737 113.87L63.6784 118.839C63.4807 119.156 63.6343 119.575 63.9904 119.689L69.3948 121.421C69.8449 121.566 70.2667 121.135 70.1127 120.688L67.8035 113.987C67.6461 113.53 67.0292 113.46 66.7737 113.87ZM67.5077 114.476L69.089 120.688L64.4031 118.839L67.5077 114.476Z" fill="#FFB61D"/>
<path id="Highlights_10" fill-rule="evenodd" clip-rule="evenodd" d="M64.8665 151.46L66.972 159.372C67.1013 159.858 67.7493 159.955 68.0145 159.527L71.1449 154.48C71.3184 154.2 71.2215 153.832 70.9326 153.674L65.6967 150.808C65.2541 150.566 64.7367 150.972 64.8665 151.46ZM65.4212 151.695L70.2744 154.177L67.5267 159.224L65.4212 151.695Z" fill="#FFB61D"/>
<path id="Highlights_11" fill-rule="evenodd" clip-rule="evenodd" d="M60.6505 180.514L61.7985 185.937C61.9038 186.435 62.5565 186.56 62.8381 186.136L65.9395 181.47C66.1683 181.126 65.9692 180.66 65.5622 180.587L61.3128 179.83C60.9119 179.758 60.5662 180.115 60.6505 180.514ZM61.6521 180.428L65.3348 181.733L62.1571 185.362L61.6521 180.428Z" fill="#FFB61D"/>
<path id="Highlights_12" fill-rule="evenodd" clip-rule="evenodd" d="M70.5997 179.366L71.7477 184.789C71.853 185.287 72.5057 185.412 72.7873 184.988L75.8887 180.322C76.1176 179.978 75.9184 179.512 75.5114 179.439L71.262 178.682C70.8611 178.61 70.5154 178.967 70.5997 179.366ZM71.1309 179.837L75.4184 179.719L71.8902 184.252L71.1309 179.837Z" fill="#FFB61D"/>
<path id="Highlights_13" fill-rule="evenodd" clip-rule="evenodd" d="M65.2423 168.268L66.3903 173.692C66.4956 174.19 67.1483 174.314 67.4299 173.891L70.5313 169.224C70.7601 168.88 70.561 168.414 70.154 168.342L65.9046 167.584C65.5037 167.513 65.158 167.87 65.2423 168.268ZM65.8038 168.149L69.6706 169.289L66.5692 173.19L65.8038 168.149Z" fill="#FFB61D"/>
<g id="Group 11">
<path id="Stroke" fill-rule="evenodd" clip-rule="evenodd" d="M192.31 185.819C192.021 186.382 191.548 186.618 190.917 186.653C188.67 186.778 186.889 185.786 185.3 184.342C184.697 183.794 184.163 183.172 183.559 182.626C183.134 182.242 182.679 181.992 182.016 182.229C181.509 182.411 180.913 182.343 180.358 182.399C179.107 182.527 177.858 182.694 176.604 182.785C175.805 182.843 175.785 183.525 175.598 183.995C175.173 185.06 174.856 186.168 174.519 187.265C174.387 187.692 174.179 187.86 173.7 187.854C171.31 187.825 168.919 187.827 166.529 187.847C165.44 187.856 164.351 187.986 163.264 187.961C161.219 187.915 159.171 187.849 157.133 187.693C155.16 187.541 153.199 187.257 151.231 187.047C149.848 186.9 148.457 186.822 147.081 186.635C145.48 186.417 143.893 186.101 142.295 185.855C141.496 185.733 140.684 185.696 139.884 185.579C138.512 185.377 137.14 185.167 135.777 184.913C134.512 184.677 133.322 184.921 132.131 185.315C129.813 186.08 127.489 186.827 125.164 187.571C124.751 187.703 124.628 187.812 124.815 188.314C125.5 190.157 126.141 192.02 126.699 193.905C127.092 195.235 127.365 196.606 127.617 197.972C127.926 199.646 128.185 201.33 128.416 203.017C128.592 204.306 128.704 205.604 128.819 206.9C128.966 208.548 129.106 210.196 129.217 211.846C129.327 213.49 129.42 215.135 129.482 216.781C129.588 219.575 129.667 222.371 129.751 225.167C129.802 226.859 129.834 228.552 129.89 230.245C129.906 230.736 130.064 231.24 129.989 231.712C129.932 232.068 129.68 232.566 129.39 232.677C128.642 232.965 128.427 233.521 128.433 234.286C128.441 235.264 128.564 236.242 128.539 237.218C128.522 237.839 128.76 238.273 129.212 238.603C131.266 240.101 133.34 241.571 135.393 243.071C136.367 243.783 137.328 244.515 138.262 245.279C139.262 246.097 140.242 246.941 141.195 247.813C142.145 248.682 142.651 249.744 142.811 251.069C142.935 252.096 142.804 253.051 142.632 254.028C142.543 254.537 142.253 254.745 141.723 254.572C139.5 253.847 137.281 253.108 135.047 252.416C131.357 251.274 127.656 250.165 123.96 249.043C122.642 248.643 121.325 248.244 120.006 247.849C119.198 247.607 119.027 246.882 118.877 246.226C118.451 244.361 119.001 242.663 119.985 241.099C120.587 240.142 121.289 239.247 121.947 238.325C122.485 237.572 122.346 236.801 122.08 235.986C121.213 233.334 120.362 230.677 119.542 228.01C118.734 225.377 117.932 222.741 117.2 220.086C116.426 217.281 115.723 214.455 115.015 211.631C114.632 210.104 114.271 208.569 113.96 207.025C113.728 205.87 113.597 204.696 113.415 203.531C113.197 202.14 113.066 200.725 112.708 199.37C112.554 198.787 111.988 198.254 111.495 197.832C110.421 196.912 109.187 196.226 107.846 195.758C107.515 195.642 107.156 195.562 106.806 195.549C105.143 195.486 103.478 195.47 101.815 195.403C100.191 195.338 98.5669 195.247 96.9449 195.138C95.272 195.025 93.6003 194.891 91.9303 194.741C90.1428 194.58 88.349 194.452 86.5745 194.196C84.6932 193.924 82.8291 193.53 80.9623 193.164C80.3551 193.046 79.9116 193.414 79.8175 194.27C79.6116 196.142 78.9757 197.881 78.2204 199.584C77.6756 200.812 76.6478 201.426 75.3799 201.636C74.4748 201.785 73.5476 201.928 72.6372 201.894C70.046 201.796 67.7351 200.941 65.6796 199.297C63.0725 197.213 61.5471 194.428 60.2484 191.459C59.6664 190.128 58.9172 188.858 58.4604 187.489C57.9643 186.001 57.7133 184.431 57.3678 182.894C57.0989 181.698 56.8246 180.503 56.5984 179.298C56.4196 178.346 56.307 177.381 56.1711 176.42C55.9906 175.145 55.8126 173.868 55.641 172.591C55.5842 172.169 55.5281 171.744 55.5103 171.319C55.4547 169.988 55.4274 168.656 55.371 167.325C55.2918 165.459 55.144 163.594 55.1193 161.727C55.0772 158.534 55.0815 155.339 55.1198 152.146C55.1366 150.744 55.2552 149.341 55.3812 147.943C55.5244 146.353 55.7416 144.771 55.8999 143.183C56.0129 142.05 56.0482 140.908 56.1782 139.777C56.3688 138.117 56.578 136.458 56.8434 134.809C57.1591 132.847 57.5201 130.892 57.9018 128.942C58.624 125.252 59.4643 121.585 60.8398 118.079C61.7162 115.846 62.6308 113.567 64.4197 111.881C65.1941 111.151 66.2701 110.73 67.2323 110.212C69.8731 108.791 72.5278 107.395 75.1695 105.975C75.293 105.908 75.3991 105.715 75.4193 105.568C75.4893 105.059 75.4582 104.529 75.5832 104.037C75.6647 103.716 75.8897 103.365 76.1554 103.171C77.0466 102.521 77.9803 101.928 78.9097 101.332C79.076 101.226 79.3115 101.132 79.4943 101.162C80.4741 101.32 80.9656 100.717 81.3015 99.975C81.7563 98.9704 82.1714 97.9428 82.5242 96.8983C83.1086 95.1683 83.6979 93.434 84.1401 91.6653C84.2926 91.0551 84.0579 90.3273 83.9201 89.67C83.6397 88.3324 83.4071 86.9702 82.9557 85.6882C82.6671 84.8685 82.0832 84.1251 81.5251 83.4333C80.0822 81.645 79.3243 79.6419 79.5669 77.3469C79.6723 76.3505 80.0997 75.4218 80.8451 74.6978C81.7223 73.8458 82.6216 73.0166 83.5015 72.1673C84.143 71.5482 84.097 71.0749 83.2617 70.4696C82.0928 69.6226 80.9718 68.7074 79.8535 67.793C78.8984 67.012 78.4875 65.8962 78.2345 64.7524C77.8904 63.1963 77.8491 61.6265 78.4837 60.1077C79.4988 57.6786 80.9615 55.6739 83.6391 54.9181C85.999 54.252 88.3533 54.2971 90.4712 55.6348C92.3956 56.8504 93.6179 58.6609 94.1556 60.8955C94.7865 63.5179 94.0683 65.8778 92.743 68.1225C92.632 68.3105 92.6206 68.5573 92.563 68.7768C92.7601 68.8141 92.956 68.8758 93.1543 68.8848C95.7033 69.001 98.2369 69.2839 100.52 70.4989C103.516 72.0936 105.401 74.6211 106.232 77.9107C106.357 78.4032 106.356 78.9325 106.372 79.4461C106.428 81.1974 106.432 82.9512 106.536 84.6994C106.557 85.0644 106.837 85.5123 107.135 85.7461C108.568 86.8681 109.055 89.6158 107.723 91.2422C107.589 91.405 107.476 91.584 107.345 91.7489C106.833 92.3932 106.091 92.706 105.352 92.5744C104.722 92.4622 104.669 92.6742 104.461 93.1389C104.017 94.1304 103.486 95.0898 102.913 96.0144C102.145 97.2537 101.36 98.4916 100.472 99.6448C99.9357 100.341 99.211 100.902 98.5317 101.477C97.7078 102.175 96.8365 102.816 95.9975 103.497C95.579 103.836 95.1202 104.011 94.5854 103.934C94.031 103.854 93.7189 104.166 93.5566 104.615C93.243 105.482 92.9596 106.362 92.7122 107.251C92.66 107.438 92.7705 107.711 92.8837 107.897C93.873 109.525 94.8556 111.158 95.8893 112.759C96.7281 114.057 97.6819 115.283 98.4937 116.597C98.9957 117.41 99.3284 118.328 99.735 119.2C100.444 120.72 101.169 122.234 101.847 123.768C101.986 124.084 102.024 124.489 101.975 124.833C101.905 125.335 101.41 125.495 100.873 125.171C100.25 124.795 99.6633 124.355 99.0799 123.917C98.7186 123.646 98.3937 123.327 98.0503 123.032C98.0106 122.998 97.9574 122.979 97.9104 122.953C97.903 123.013 97.882 123.075 97.8902 123.133C97.9862 123.808 98.0633 124.486 98.1923 125.155C98.3256 125.846 98.5286 126.523 98.6689 127.212C98.9475 128.582 99.2168 129.954 99.4662 131.329C99.7467 132.876 100.016 134.425 100.26 135.978C100.385 136.776 100.428 137.587 100.536 138.389C100.699 139.601 100.904 140.807 101.056 142.02C101.14 142.683 101.158 143.354 101.195 144.022C101.245 144.932 101.278 145.844 101.33 146.754C101.459 149.001 101.589 151.247 101.731 153.492C101.767 154.049 102.094 154.477 102.595 154.636C104.021 155.089 105.018 156.754 104.778 158.144C104.722 158.467 104.65 158.801 104.508 159.092C104.167 159.791 104.612 160.188 105.054 160.551C105.772 161.142 106.521 161.696 107.271 162.246C109.052 163.551 110.846 164.84 112.627 166.145C114.24 167.328 116.021 168.15 117.931 168.733C119.465 169.201 120.769 170.087 121.996 171.11C122.598 171.612 123.119 172.355 124.073 172.172C125.423 171.912 126.769 171.631 128.116 171.353C128.522 171.269 128.921 171.147 129.328 171.077C130.749 170.832 131.588 169.827 132.424 168.787C133.047 168.013 133.74 167.297 134.388 166.543C135.662 165.06 136.922 163.565 138.195 162.081C138.827 161.343 139.479 160.621 140.118 159.889C141.919 157.825 143.709 155.752 145.522 153.699C146.472 152.622 147.461 151.58 148.428 150.519C148.688 150.233 148.966 149.954 149.172 149.631C149.485 149.14 149.804 148.989 150.416 149.187C151.752 149.62 151.729 149.537 150.794 150.563C149.12 152.399 147.502 154.286 145.854 156.145C145.048 157.055 144.215 157.94 143.416 158.855C142.013 160.46 140.632 162.084 139.233 163.692C138.239 164.833 137.234 165.964 136.228 167.095C135.45 167.97 134.661 168.835 133.886 169.712C133.818 169.788 133.765 170.001 133.789 170.016C133.978 170.134 134.192 170.31 134.391 170.302C136.016 170.239 137.638 170.115 139.263 170.059C140.479 170.018 141.698 170.017 142.914 170.059C144.473 170.113 146.033 170.18 147.585 170.329C149.313 170.495 151.032 170.761 152.756 170.98C154.523 171.204 156.297 171.388 158.057 171.654C159.817 171.919 161.563 172.277 163.319 172.569C164.773 172.811 166.238 172.991 167.69 173.244C169.543 173.566 171.386 173.941 173.235 174.281C174.534 174.519 175.838 174.727 177.136 174.966C178.388 175.196 179.633 175.463 180.887 175.685C181.676 175.825 182.473 175.967 183.271 176C183.606 176.014 184.032 175.832 184.281 175.596C186.179 173.79 188.02 171.922 189.927 170.125C192.061 168.114 194.293 166.215 196.699 164.527C197.8 163.755 199.033 163.89 200.233 163.994C200.932 164.054 201.608 164.391 202.293 164.609C202.855 164.787 202.905 165.134 202.655 165.625C201.52 167.853 200.405 170.092 199.269 172.32C198.287 174.246 197.287 176.162 196.262 178.116C194.923 180.706 193.618 183.264 192.31 185.819ZM87.2355 169.386C87.8323 167.66 88.3562 165.905 88.8269 164.14C89.1327 162.994 89.3061 161.81 89.5026 160.637C89.7045 159.431 89.8734 158.22 90.0365 157.008C90.226 155.601 90.521 154.193 90.5439 152.782C90.5898 149.948 90.4726 147.112 90.4414 144.277C90.4223 142.544 90.4122 140.81 90.4461 139.078C90.4727 137.715 89.6798 136.7 89.102 135.582C88.7173 134.838 88.3113 134.087 88.0656 133.293C87.6149 131.836 87.2484 130.351 86.8991 128.865C86.6603 127.849 86.4843 126.816 86.3272 125.784C86.1455 124.589 85.7526 123.467 85.2427 122.383C85.2 122.292 84.8416 122.226 84.8032 122.277C84.5977 122.552 84.4445 122.867 84.2785 123.171C83.9832 123.712 83.5342 124.227 83.4316 124.803C83.2266 125.955 82.6961 126.943 82.1537 127.93C81.8162 128.545 81.2478 128.561 80.8529 127.997C80.4284 127.39 79.9699 126.778 79.6991 126.1C79.0622 124.504 78.492 122.88 77.9618 121.245C77.2649 119.097 76.6078 116.935 75.9822 114.766C75.6555 113.633 75.33 112.482 75.1928 111.317C75.0584 110.175 75.1648 109.005 75.1613 107.847C75.161 107.744 75.1293 107.64 75.1122 107.537C75.0653 107.573 75.0224 107.618 74.9708 107.646C73.7573 108.314 72.5513 108.996 71.3262 109.641C70.1111 110.281 68.8902 110.914 67.6469 111.496C66.2846 112.135 64.9173 112.794 64.1282 114.132C63.2745 115.58 62.2768 116.959 61.7625 118.591C61.2323 120.274 60.6326 121.936 60.1712 123.637C59.6991 125.377 59.3778 127.156 58.9523 128.909C58.6806 130.029 58.2329 131.115 58.0546 132.246C57.7826 133.972 57.6145 135.72 57.517 137.465C57.4334 138.963 57.4398 140.464 57.2376 141.956C57.0807 143.115 56.9741 144.28 56.8327 145.44C56.6175 147.208 56.2308 148.971 56.2031 150.74C56.1419 154.658 56.3032 158.578 56.2849 162.497C56.2754 164.551 56.5817 166.559 56.8236 168.583C57.0921 170.83 57.2512 173.091 57.5075 175.34C57.6817 176.868 57.8559 178.406 58.1819 179.906C58.7127 182.349 59.2829 184.789 59.9916 187.185C60.8759 190.174 62.1741 192.99 64.0021 195.544C65.1445 197.14 66.5389 198.447 68.2604 199.387C70.5942 200.661 73.0971 200.551 75.6047 200.162C76.016 200.098 76.5481 199.782 76.7242 199.431C77.2178 198.449 77.649 197.414 77.9301 196.353C78.3294 194.846 78.5059 193.281 78.8976 191.771C79.5435 189.282 80.3562 186.835 80.9649 184.338C81.4663 182.281 82.4216 180.425 83.2518 178.512C83.8626 177.105 84.5851 175.746 85.3243 174.299C85.9663 172.663 86.6616 171.046 87.2355 169.386ZM109.265 194.794C110.472 195.532 111.656 196.315 112.805 197.141C113.523 197.657 114.038 198.407 114.195 199.274C114.56 201.282 114.801 203.311 115.153 205.321C115.4 206.732 115.755 208.124 116.049 209.526C116.288 210.668 116.509 211.814 116.736 212.959C116.959 214.083 117.176 215.209 117.401 216.333C117.573 217.19 117.751 218.046 117.932 218.901C118.225 220.283 118.459 221.682 118.837 223.041C119.21 224.379 119.771 225.664 120.181 226.994C120.862 229.206 121.708 231.349 122.687 233.446C122.919 233.943 123.31 233.843 123.541 233.752C125.007 233.178 126.452 232.552 127.888 231.907C128.341 231.704 128.582 231.31 128.562 230.771C128.505 229.308 128.465 227.844 128.425 226.38C128.377 224.629 128.336 222.877 128.292 221.126C128.248 219.411 128.238 217.695 128.149 215.983C128.062 214.31 127.898 212.641 127.759 210.971C127.587 208.891 127.426 206.809 127.222 204.732C127.081 203.297 126.952 201.854 126.681 200.442C126.211 197.995 125.634 195.57 125.104 193.135C124.487 190.297 123.294 187.825 120.936 185.968C119.14 184.553 117.256 183.291 115.219 182.282C112.966 181.165 110.687 180.079 108.348 179.161C105.674 178.112 103.077 176.787 100.133 176.546C98.7184 176.43 97.3153 176.182 95.903 176.032C94.7702 175.911 93.628 175.877 92.4957 175.753C90.7035 175.557 88.9182 175.296 87.1243 175.12C86.8727 175.095 86.494 175.332 86.3397 175.559C85.9851 176.082 85.7182 176.667 85.4414 177.24C84.5769 179.027 83.5643 180.763 82.9067 182.625C82.0377 185.084 81.4478 187.642 80.743 190.159C80.3437 191.585 80.3352 191.649 81.5785 191.91C83.0171 192.211 84.4785 192.411 85.9361 192.612C86.8894 192.743 87.8554 192.779 88.8121 192.889C90.6252 193.098 92.4337 193.347 94.248 193.543C95.4025 193.667 96.5631 193.742 97.7226 193.811C99.4556 193.914 101.189 194.01 102.924 194.073C103.963 194.111 105.004 194.08 106.177 194.08C107.266 194.06 108.33 194.223 109.265 194.794ZM161.319 186.512C162.436 186.564 163.554 186.619 164.672 186.642C167.265 186.698 169.858 186.741 172.451 186.773C172.969 186.779 173.435 186.565 173.575 186.032C174.326 183.164 175.803 180.504 175.993 177.47C176.041 176.7 175.708 176.157 174.922 176.019C174.102 175.876 173.293 175.675 172.476 175.519C171.448 175.323 170.415 175.151 169.386 174.962C168.462 174.792 167.539 174.616 166.616 174.437C165.941 174.307 165.268 174.163 164.593 174.035C163.299 173.791 162.004 173.551 160.709 173.314C159.824 173.152 158.939 172.985 158.05 172.843C157.361 172.732 156.666 172.663 155.975 172.562C154.515 172.349 153.057 172.128 151.598 171.909C150.765 171.785 149.933 171.648 149.099 171.535C147.985 171.385 146.868 171.131 145.754 171.137C142.958 171.153 140.162 171.276 137.367 171.385C136.03 171.437 134.691 171.512 133.363 171.661C132.619 171.745 131.904 171.981 131.365 172.607C130.486 173.628 129.543 174.592 128.655 175.605C128.095 176.245 127.57 176.918 127.058 177.597C126.38 178.496 125.554 179.042 124.372 178.95C122.437 178.801 120.498 178.691 118.563 178.542C117.845 178.487 117.13 178.38 116.416 178.28C115.205 178.111 113.997 177.914 112.785 177.755C111.625 177.603 110.462 177.477 109.298 177.358C108.97 177.324 108.634 177.343 108.303 177.361C108.237 177.365 108.178 177.478 108.115 177.54C108.183 177.571 108.251 177.6 108.317 177.634C108.9 177.938 109.467 178.277 110.066 178.541C111.824 179.318 113.637 179.981 115.351 180.843C117.839 182.095 120.161 183.623 122.272 185.46C122.927 186.03 123.555 186.453 124.629 186.31C126.331 186.084 127.921 185.664 129.448 184.921C131.503 183.921 133.595 183.1 135.958 183.59C137.325 183.874 138.7 184.122 140.066 184.415C140.931 184.601 141.775 184.906 142.646 185.036C143.727 185.196 144.828 185.224 145.919 185.319C147.904 185.492 149.888 185.676 151.873 185.848C153.221 185.965 154.57 186.071 155.985 186.248C157.763 186.336 159.541 186.429 161.319 186.512ZM92.1585 148.158C92.1782 148.688 92.157 149.219 92.1658 149.75C92.2072 152.232 92.2462 154.713 92.3017 157.195C92.3178 157.915 92.2862 158.657 92.4511 159.348C92.7851 160.746 93.2232 162.12 93.6499 163.494C93.8326 164.083 94.0868 164.643 94.752 164.876C95.3308 165.079 95.8913 165.334 96.4712 165.533C97.3317 165.828 97.5955 165.717 98.1568 164.929C98.3423 164.669 98.5564 164.428 98.765 164.185C100.109 162.617 101.494 161.082 102.789 159.475C103.745 158.288 103.579 156.379 101.979 155.766C101.807 155.7 101.636 155.621 101.458 155.584C100.512 155.388 100.556 155.39 100.524 154.497C100.412 151.304 100.787 148.103 100.285 144.914C100.085 143.641 100.167 142.324 99.983 141.047C99.6966 139.061 99.3 137.089 98.9362 135.114C98.5921 133.245 98.2471 131.377 97.8701 129.515C97.5888 128.126 97.2507 126.748 96.9478 125.363C96.7167 124.306 96.5352 123.237 96.2562 122.194C96.1808 121.912 95.8308 121.703 95.6068 121.461C95.3448 121.714 94.8858 121.945 94.8541 122.224C94.6935 123.639 94.4753 125.082 94.5996 126.487C94.7425 128.1 94.9846 129.699 94.6766 131.301C94.3257 133.126 93.7419 134.879 92.7529 136.476C92.2046 137.361 91.7951 138.279 91.8884 139.375C91.9807 140.458 92.0107 141.549 92.0261 142.637C92.0481 144.185 92.0317 145.734 92.0317 147.416C92.076 147.663 92.1493 147.909 92.1585 148.158ZM85.1945 93.3192C85.0828 93.4923 84.9279 93.6512 84.8661 93.8404C84.2354 95.7707 83.6593 97.7198 82.9851 99.6345C82.579 100.788 81.9415 101.817 80.8876 102.542C80.1218 103.069 79.4076 103.67 78.6583 104.221C78.2888 104.493 78.3668 104.729 78.5973 105.059C79.2868 106.047 80.0156 107.019 80.5911 108.072C81.3854 109.526 82.0657 111.043 82.7726 112.543C83.4614 114.005 84.1807 115.457 84.7772 116.957C85.284 118.231 85.5566 119.599 86.078 120.866C86.5493 122.011 87.0549 123.14 87.2257 124.366C87.2838 124.783 87.4189 124.787 87.7349 124.786C89.6343 124.779 91.4684 124.528 93.0698 123.397C93.2066 123.301 93.3225 123.102 93.3485 122.935C93.4113 122.532 93.4006 122.117 93.4479 121.711C93.4813 121.424 93.6683 121.114 93.6013 120.864C93.3518 119.934 93.0197 119.027 92.7295 118.108C92.1752 116.352 91.4479 114.615 91.3983 112.763C91.3479 110.879 91.5174 108.986 91.6465 107.1C91.6992 106.331 91.85 105.559 92.0445 104.812C92.2726 103.935 92.2184 103.695 91.4269 103.267C90.1245 102.563 89.0017 101.617 88.199 100.396C86.8891 98.4034 85.8827 96.2593 85.5235 93.7809C85.4138 93.627 85.3042 93.4731 85.1945 93.3192ZM104.088 92.7313C104.124 92.6597 104.446 92.4362 103.967 92.3554C103.483 92.2738 102.936 92.0389 102.604 91.6922C101.952 91.0122 101.412 90.22 100.864 89.4473C100.709 89.2286 100.654 89.0959 100.436 89.3581C100.297 89.5245 100.118 89.6566 99.9796 89.8233C98.7814 91.2704 97.0583 91.8849 95.4449 91.4828C93.5107 91.0007 92.3315 88.9385 92.3051 87.1494C92.2946 86.4361 92.069 85.8385 91.4993 85.4282C90.5513 84.7454 89.5762 84.0995 88.6017 83.4543C88.0562 83.0932 87.5365 83.2113 87.3957 83.7809C87.0471 85.1911 86.6131 86.6045 86.4914 88.0402C86.3409 89.8165 86.4125 91.6098 86.8366 93.3823C87.5511 96.3683 88.4787 99.2058 90.9155 101.31C92.4866 102.667 94.4273 102.972 96.2979 102.151C98.1518 101.337 99.2909 99.8321 100.399 98.2655C101.33 96.9487 102.259 95.6299 103.255 94.2455C103.537 93.7428 103.829 93.2453 104.088 92.7313ZM184.376 181.418C185.664 183.058 187.162 184.426 189.212 185.088C190.478 185.497 190.942 185.425 191.643 184.089C193.073 181.364 194.486 178.63 195.894 175.894C196.457 174.801 196.977 173.686 197.541 172.594C198.642 170.46 199.758 168.334 200.874 166.209C201.078 165.821 200.884 165.469 200.584 165.429C199.543 165.29 198.443 164.993 197.476 165.636C196.201 166.484 194.917 167.338 193.744 168.317C191.965 169.802 190.251 171.369 188.563 172.959C187.797 173.68 187.151 174.53 186.47 175.338C185.933 175.977 185.243 176.515 185.038 177.387C184.849 178.194 184.662 179.002 184.475 179.942C184.254 180.423 184.007 180.949 184.376 181.418ZM140.509 252.671C140.813 252.695 141.398 252.557 141.4 252.475C141.44 251.333 141.656 250.122 140.63 249.229C139.297 248.07 138.006 246.857 136.616 245.77C134.373 244.016 132.065 242.346 129.782 240.643C128.967 240.035 128.156 239.389 127.118 239.23C126.189 239.088 125.242 239.069 124.31 238.945C123.524 238.839 122.988 239.18 122.511 239.746C121.353 241.119 120.511 242.645 120.192 244.428C119.943 245.824 120.392 246.594 121.52 246.926C123.667 247.558 125.799 248.242 127.942 248.888C129.477 249.352 131.027 249.769 132.56 250.242C134.795 250.932 137.02 251.654 139.382 252.362C139.757 252.471 140.128 252.641 140.509 252.671ZM95.4185 166.596C93.9357 166.009 92.4617 165.4 90.9754 164.822C90.5363 164.651 90.1625 164.601 90.0177 165.277C89.8606 166.011 89.5254 166.707 89.2832 167.424C88.7457 169.016 88.2057 170.607 87.6968 172.208C87.6027 172.504 87.4596 172.919 88.0441 172.975C88.8055 173.049 89.5625 173.176 90.3249 173.231C91.8138 173.34 93.304 173.446 94.7956 173.495C97.0115 173.568 99.229 173.595 101.446 173.634C102.154 173.646 102.862 173.633 103.57 173.637C103.743 173.638 103.925 173.626 104.085 173.676C106.005 174.276 107.917 174.897 109.839 175.491C111.771 176.089 113.707 176.675 115.771 176.56C116.488 176.52 116.619 176.386 116.356 175.726C116.212 175.366 116.012 175 115.747 174.722C114.454 173.367 112.876 172.421 111.186 171.643C109.841 171.023 108.525 170.332 107.012 170.176C106.303 170.103 105.589 170.002 104.901 169.823C103.808 169.54 102.724 169.213 101.655 168.849C100.319 168.394 99.0018 167.883 97.5437 167.396C96.835 167.13 96.1221 166.875 95.4185 166.596ZM78.7435 107.99C78.122 107.027 77.4679 106.084 76.8258 105.135C76.7364 105.003 76.6388 104.876 76.545 104.747C76.4829 104.964 76.3957 105.178 76.3636 105.4C76.2574 106.133 76.1976 106.874 76.0717 107.603C75.8224 109.047 75.6869 110.465 76.6226 111.748C76.6819 111.829 76.7284 111.927 76.7551 112.024C77.0992 113.275 77.4372 114.527 77.7803 115.778C77.8671 116.095 77.9578 116.411 78.0619 116.722C78.5094 118.062 79.0518 119.378 79.3891 120.745C79.7355 122.149 80.0008 123.559 80.7203 124.842C80.927 125.21 80.994 125.655 81.1466 126.057C81.1921 126.176 81.3421 126.369 81.3898 126.355C81.5418 126.307 81.7422 126.206 81.7933 126.076C82.3874 124.55 82.6736 122.884 83.8006 121.602C84.7578 120.514 84.5592 119.403 83.972 118.241C83.7425 117.787 83.6005 117.29 83.3957 116.822C82.9528 115.812 82.5289 114.791 82.0332 113.806C81.6002 112.946 81.0757 112.132 80.5991 111.293C80.264 110.703 79.9413 110.106 79.5466 109.446C79.2809 108.96 79.0434 108.454 78.7435 107.99ZM114.619 168.919C112.68 167.666 110.713 166.448 108.833 165.109C107.259 163.988 105.801 162.707 104.272 161.522C103.859 161.202 103.385 161.096 102.963 161.578C102.28 162.359 101.583 163.128 100.901 163.91C100.393 164.493 99.9045 165.092 99.3955 165.674C98.9976 166.128 99.0394 166.372 99.6219 166.546C101.493 167.106 103.379 167.621 105.244 168.198C107.792 168.987 110.336 169.788 112.86 170.646C113.667 170.921 114.379 171.476 115.186 171.754C116.005 172.037 116.881 172.185 117.744 172.305C118.741 172.444 119.75 172.499 120.756 172.562C120.917 172.572 121.087 172.428 121.252 172.356C121.154 172.22 121.08 172.054 120.954 171.952C119.359 170.646 117.455 169.973 115.474 169.254C115.188 169.145 114.871 169.082 114.619 168.919ZM89.3632 133.95C89.6098 134.886 90.1957 135.341 91.0979 135.425C91.8769 135.499 92.1057 135.071 92.2957 134.502C92.5678 133.687 92.8372 132.87 93.0925 132.05C93.6595 130.227 93.5784 128.39 93.239 126.537C93.1283 125.933 93.1542 125.303 93.1265 124.685C93.1225 124.595 93.1682 124.503 93.1909 124.412C93.0999 124.439 93.0054 124.457 92.9183 124.493C92.3714 124.719 91.8448 125.033 91.2762 125.16C90.2111 125.4 89.1254 125.558 88.0414 125.697C87.6229 125.75 87.375 125.794 87.5079 126.306C87.6334 126.79 87.6835 127.292 87.7834 127.783C87.9985 128.841 88.2242 129.897 88.4456 131.086C88.7555 132.04 89.1079 132.982 89.3632 133.95ZM100.714 123.964C100.817 124.051 100.932 124.125 101.041 124.205C101.04 124.057 101.081 123.893 101.032 123.763C100.744 122.998 100.476 122.222 100.125 121.486C99.3762 119.915 98.6879 118.3 97.7735 116.828C96.8745 115.381 95.6641 114.13 94.7092 112.713C94.0251 111.698 93.5412 110.549 92.9571 109.465C92.8672 109.298 92.7189 109.163 92.5976 109.014C92.5418 109.189 92.4342 109.367 92.4385 109.541C92.4665 110.673 92.4811 111.807 92.576 112.934C92.6407 113.703 92.7704 114.477 92.977 115.22C93.2064 116.044 93.6223 116.818 93.8367 117.645C94.0875 118.612 94.5471 119.225 95.4843 119.741C97.0385 120.599 98.6423 121.49 99.7353 123.121C100.061 123.402 100.385 123.685 100.714 123.964ZM93.7955 86.4502C93.2855 87.1928 94.2311 89.7946 94.7453 89.9882C98.3447 91.3429 99.3709 89.0246 99.4182 88.388C99.5119 87.1248 99.6678 85.844 98.4735 84.8196C95.3233 84.1931 94.6196 85.2501 93.7955 86.4502ZM107.578 87.502C107.094 86.2968 106.362 85.5108 105.087 85.7859C104.437 85.9262 103.864 86.4418 103.265 86.8038C101.98 87.5813 101.812 88.0067 102.261 89.3851C102.711 90.7645 103.76 91.5547 105.094 91.8229C106.199 92.0449 106.988 91.3599 107.572 90.3292C107.719 89.3876 107.961 88.4559 107.578 87.502ZM102.811 85.9438C103.33 85.5747 103.893 85.0284 104.453 85.0082C105.421 84.9732 105.264 84.3817 105.159 83.9158C104.867 82.6143 104.486 81.332 104.114 80.0497C103.859 79.1719 103.643 79.1215 103.025 79.7398C101.966 80.7989 100.893 81.8375 99.5621 82.5686C99.146 82.7973 99.0888 83.3241 99.3863 83.7391C99.4971 83.8936 99.6474 84.0261 99.7304 84.1931C100.14 85.0157 100.511 85.8581 100.947 86.6653C101.044 86.8438 100.971 87.475 101.595 87.0102C101.998 86.6514 102.374 86.2547 102.811 85.9438ZM180.972 181.18C181.876 181.012 182.844 180.78 182.984 179.578C183.007 179.377 183.099 179.184 183.145 178.983C183.43 177.741 183.107 177.343 181.863 177.209C180.692 177.083 179.529 176.874 178.365 176.686C177.742 176.585 177.627 176.702 177.558 177.336C177.463 178.214 177.326 179.089 177.162 179.957C177.018 180.718 177.231 181.319 177.9 181.468C178.925 181.38 179.965 181.367 180.972 181.18ZM126.734 237.738C126.861 237.733 127.075 237.482 127.08 237.339C127.111 236.389 127.089 235.438 127.099 234.488C127.105 233.954 126.696 233.936 126.402 234.03C125.763 234.233 125.155 234.537 124.537 234.808C124.091 235.005 123.59 235.164 123.644 235.807C123.682 236.26 123.682 236.725 123.787 237.164C123.961 237.893 124.59 237.547 125.104 237.692C125.648 237.714 126.193 237.763 126.734 237.738ZM91.3578 160.511C91.3196 160.403 91.1625 160.337 91.0599 160.251C90.9854 160.358 90.8556 160.459 90.8454 160.572C90.783 161.255 90.7296 161.939 90.7087 162.624C90.6882 163.293 91.162 163.727 91.8428 163.665C91.9581 163.655 92.1625 163.452 92.1476 163.37C92.0474 162.826 91.8989 162.291 91.6997 161.687C91.589 161.294 91.4936 160.895 91.3578 160.511ZM128.779 173.052C128.853 172.907 129.008 172.5 128.557 172.584C127.87 172.713 127.194 172.908 126.519 173.093C126.395 173.126 126.294 173.242 126.183 173.32C126.312 173.381 126.439 173.49 126.571 173.494C127.122 173.514 127.674 173.503 128.292 173.436C128.461 173.312 128.694 173.22 128.779 173.052ZM77.4879 103.406C77.382 103.468 77.2762 103.529 77.1703 103.591C77.2536 103.683 77.3218 103.812 77.4258 103.856C77.4879 103.882 77.6241 103.793 77.6958 103.723C78.1046 103.327 78.506 102.923 78.9049 102.517C78.9848 102.436 79.0429 102.333 79.111 102.24C78.9767 102.267 78.808 102.25 78.714 102.326C78.3154 102.649 77.9389 102.999 77.4879 103.406Z" fill="#00160A"/>
<path id="Highlights_14" fill-rule="evenodd" clip-rule="evenodd" d="M91.7206 95.6725C91.0984 95.336 90.4829 95.0601 90.3536 94.3104C90.1024 92.8538 90.6272 91.1377 92.5255 91.2375C94.2372 91.3274 95.3232 92.7489 94.7176 94.3545C94.2711 95.5383 93.1876 96.1254 91.7206 95.6725Z" fill="#FFB61D"/>
<path id="Stroke_2" fill-rule="evenodd" clip-rule="evenodd" d="M100.161 90.2386C100.195 90.0153 100.23 89.859 100.264 89.7027C100.318 89.839 100.387 89.9713 100.423 90.1123C100.69 91.1571 101.536 93.7585 100.528 94.9556C100.444 95.0552 100.019 95.071 99.7542 95.0542C99.2337 95.0213 98.6271 94.2536 98.7236 93.7585C98.7381 93.6843 99.9942 94.9033 100.264 94.2436C100.713 93.1434 100.161 90.617 100.161 90.2386Z" fill="#00160A"/>
<path id="Stroke_3" fill-rule="evenodd" clip-rule="evenodd" d="M93.076 97.8619C93.0237 97.8354 92.9513 97.8424 92.8887 97.845C92.734 97.8515 92.5222 97.5744 92.6124 97.4571C92.7481 97.2807 92.902 97.1025 93.0859 96.9864C93.1954 96.9172 93.3765 97.1415 93.3628 97.2406C93.3526 97.3147 93.423 97.4308 93.4913 97.481C94.5312 98.245 95.6857 98.7401 96.949 98.9781C97.0325 98.9938 97.1051 99.0683 97.1828 99.1155C97.1054 99.1693 97.0284 99.2737 96.9505 99.2692C95.5723 99.1887 93.9789 98.3199 93.076 97.8619Z" fill="#00160A"/>
</g>
<path id="Highlights_15" fill-rule="evenodd" clip-rule="evenodd" d="M59.4981 157.686L58.189 163.277C58.0878 163.71 58.4946 164.088 58.9185 163.956L63.4629 162.541C63.8452 162.422 63.9913 161.958 63.746 161.642L60.5107 157.466C60.2148 157.084 59.6082 157.216 59.4981 157.686ZM60.0569 158.583L62.9096 161.993L58.7479 163.408L60.0569 158.583Z" fill="#FFB61D"/>
<path id="Highlights_16" fill-rule="evenodd" clip-rule="evenodd" d="M63.5592 125.43C63.0807 125.387 62.7643 125.916 63.0283 126.317L66.3576 131.378C66.582 131.72 67.0808 131.724 67.3111 131.387L70.3754 126.899C70.6226 126.537 70.3892 126.043 69.9527 126.004L63.5592 125.43ZM64.0096 126.004L69.7336 127.116L66.3576 130.65L64.0096 126.004Z" fill="#FFB61D"/>
<path id="Highlights_17" fill-rule="evenodd" clip-rule="evenodd" d="M84.6583 164.131H79.9626C79.5733 164.131 79.297 164.511 79.4162 164.881L80.9936 169.784C81.1425 170.247 81.7634 170.326 82.0243 169.916L85.1426 165.013C85.3857 164.631 85.1112 164.131 84.6583 164.131ZM84.2756 165.088L81.9226 169.608L80.3453 164.705L84.2756 165.088Z" fill="#FFB61D"/>
<path id="Highlights_18" fill-rule="evenodd" clip-rule="evenodd" d="M69.272 190.698L69.0574 194.948C69.0349 195.394 69.5069 195.693 69.9006 195.484L75.3602 192.575C75.8227 192.329 75.7403 191.642 75.2326 191.513L69.9876 190.171C69.636 190.081 69.2903 190.335 69.272 190.698ZM69.687 191.103L74.7044 191.8L69.9006 194.64L69.687 191.103Z" fill="#FFB61D"/>
<path id="Highlights_19" fill-rule="evenodd" clip-rule="evenodd" d="M62.033 138.495L57.8237 141.413C57.4675 141.66 57.5029 142.197 57.8885 142.395L62.8145 144.924C63.2263 145.136 63.7061 144.798 63.6457 144.339L62.9291 138.892C62.8731 138.466 62.3861 138.25 62.033 138.495ZM62.2021 139.509L63.0766 144.414L58.1507 141.885L62.2021 139.509Z" fill="#FFB61D"/>
<path id="Highlights_20" fill-rule="evenodd" clip-rule="evenodd" d="M81.3471 150.993L78.7206 154.914C78.4944 155.252 78.6811 155.711 79.0787 155.795L82.1498 156.445C82.5292 156.525 82.8774 156.214 82.8399 155.828L82.3953 151.256C82.3431 150.72 81.6471 150.545 81.3471 150.993ZM82.0623 151.778V155.978L79.4217 154.914L82.0623 151.778Z" fill="#FFB61D"/>
<path id="Highlights_21" fill-rule="evenodd" clip-rule="evenodd" d="M81.8443 132.518C82.6085 132.019 83.2791 132.137 82.7334 133.235C82.7334 133.235 78.7495 143.336 77.5592 143.455C76.4304 143.569 75.8855 142.109 74.3093 137.935L74.2424 137.757C74.2364 137.742 74.2312 137.726 74.2267 137.71L74.2183 137.677L74.208 137.658L74.1862 137.608L73.9977 137.098C73.7751 136.49 73.2147 135.487 72.9184 135.139C72.6026 134.767 73.3071 134.537 73.8275 134.537C74.7988 134.537 75.9873 134.809 77.8565 134.269C80.0456 133.637 80.7969 133.201 81.8443 132.518ZM80.15 137.707L80.0975 137.741C79.5417 138.083 78.9275 138.347 78.2562 138.53C77.4533 138.749 76.2885 138.776 75.5349 138.612L75.4088 138.583L75.4553 138.698C75.8806 139.759 76.2588 140.984 76.5883 141.608L76.7033 141.82C76.9099 142.191 77.0913 142.461 77.2381 142.623L77.2839 142.671L77.3409 142.602C77.5866 142.288 78.4611 141.106 79.0687 139.925L79.1322 139.801C79.3923 139.291 79.676 138.712 79.9832 138.063L80.15 137.707ZM81.7898 133.685L81.6974 133.737C80.8331 134.219 79.4036 135.018 78.1748 135.372C76.7039 135.797 75.457 135.948 74.4312 135.812L74.3683 135.803L74.4044 135.905C74.5023 136.179 74.9177 137.477 75.0648 137.677C75.6601 138.227 76.3901 138.279 77.2839 138.063L77.412 138.03C80.6124 137.411 81.7898 133.685 81.7898 133.685Z" fill="#FFB61D"/>
<path id="Shadow_10" fill-rule="evenodd" clip-rule="evenodd" d="M194.18 168.997C194.308 168.903 194.487 168.93 194.581 169.058C195.244 169.956 196.366 170.001 197.857 169.173C197.996 169.096 198.17 169.146 198.247 169.284C198.324 169.423 198.274 169.597 198.136 169.674C196.42 170.627 194.984 170.57 194.119 169.398C194.025 169.271 194.053 169.091 194.18 168.997Z" fill="#E7EAEE"/>
<path id="Shadow_11" fill-rule="evenodd" clip-rule="evenodd" d="M192.011 171.296C192.128 171.19 192.31 171.198 192.416 171.316C193.421 172.421 194.757 172.484 195.843 171.904C195.983 171.829 196.157 171.882 196.231 172.022C196.306 172.162 196.253 172.336 196.113 172.41C194.816 173.103 193.196 173.027 191.992 171.702C191.885 171.584 191.894 171.403 192.011 171.296Z" fill="#E7EAEE"/>
<path id="Shadow_12" fill-rule="evenodd" clip-rule="evenodd" d="M189.661 173.574C189.776 173.465 189.958 173.47 190.066 173.586C191.035 174.615 193.004 175.118 194.351 174.404C194.491 174.33 194.665 174.383 194.739 174.523C194.813 174.663 194.76 174.837 194.62 174.911C193.025 175.757 190.782 175.184 189.648 173.979C189.54 173.864 189.545 173.682 189.661 173.574Z" fill="#E7EAEE"/>
<path id="Shadow_13" fill-rule="evenodd" clip-rule="evenodd" d="M191.485 182.574C193.5 181.6 191.417 177.987 189.467 179.449C188.217 180.387 189.588 183.492 191.485 182.574Z" fill="#E7EAEE"/>
</g>
</g>
</g>
</svg>
